# xmcd
# Track frame offsets:
# 150
# 12872
# 26994
# 40950
# 53707
# 70525
# 82645
# 97339
# 111646
# 124951
# 137377
# 150872
# 164771
# 177728
# 190977
# 202850
# 218281
# 230476
# 244432
# 258351
# 270634
# 283465
# 297170
#
# Disc length: 4169 seconds
# Revision: 0
# Processed by: cddbd v1.4PL0 Copyright (c) Steve Scherf et al.
# Submitted via: VisiTrax 2.9.5.181 - For more info visit www.synapsa.com
#
DISCID=54104717
DTITLE=Various Artist - Slidin' On The Frets: The Hawaiian Steel Guitar Phen
DTITLE=omenon
DYEAR=2000
DGENRE=
TTITLE0=Kanui and Lula - My Little Grass Shack in Kealakekua
TTITLE1=Bezos' Hawaiian Orchestra - Pame Sti Honoloulou
TTITLE2=Oscar Woods - Don't Sell It--Don't Give It Away
TTITLE3=Rodney Rogers' Red Peppers - Milenberg Joys
TTITLE4=Jimmie Tarlton - My Little Blue Heaven
TTITLE5=Emery Cournard - Why My Craf Vex With Me?
TTITLE6=Eddy's Hawaiian Serenaders - Down In Waikiki
TTITLE7=H.M. Barnes And His Blue Ridge Ramblers - Honolulu Stomp
TTITLE8=Tau Moe's Hawaiian Jazzites - U Like, Noa Like
TTITLE9=Honolulu Players - Mindinao March
TTITLE10=King Oliver And His Orchestra - Everybody Does It In Hawaii
TTITLE11=Truett And George - Ghost Dance
TTITLE12=Nelstrone's Hawaiians - You'll Never Find A Daddy Like Me
TTITLE13=Les Loups - La Portena es una Papa
TTITLE14=Casey Bill - Has My Gal Been Here ?
TTITLE15=Jimmy Yates' Boll Weevils - Smiles
TTITLE16=Los Angeles Biltmore Hotel Trio - Clowin' The Frets
TTITLE17=Gino Bordin Hawaiian Orchestra - Caresses Vinitiennes
TTITLE18=Sylvester Weaver - Guitar Rag
TTITLE19=Patt Patterson And His Champion Pep Riders - The Cat's Whiskers
TTITLE20=Hawaiian Songbirds - Happy Hawaiian Blues
TTITLE21=Lawson's Hawaiians - Drifting and Dreaming
TTITLE22=Andy Sannella - Sliding On The Frets
EXTD=c 2000 Yazoo Records\n\nSylvester Weaver  -  Performer \nRobert Armstr
EXTD=ong  -  Producer, Liner Notes \nJimmie Tarlton  -  Performer \nRichar
EXTD=d Nevins  -  Remastering \nSherwin Dunner  -  Producer \nOscar Wood
EXTD=s  -  Performer \nKanui and Lula  -  Performer \nJoan Pelosi  -  Desig
EXTD=n \nAndy Sannella  -  Performer
EXTT0=AMG Review\n\nWhile not exactly luau music, Slidin' on the Frets: Th
EXTT0=e Hawaiian Steel Guitar Phenomenon is steeped in island tradition. Mad
EXTT0=e up of historical recordings highlighting the Hawaiian music craze o
EXTT0=f the early part of the 20th century, these 23 songs range in origin f
EXTT0=rom Trinidad, Argentina, France, Greece, and more and feature a styl
EXTT0=e quite removed from Don Ho's "Hawaiian Wedding Song." These gritty re
EXTT0=cordings have an earthy, bluesy feel to them much more akin to a Delt
EXTT0=a blues or pedal steel guitar sound, but at times have a wacky vaudevi
EXTT0=lle/ragtime feel. Quite eclectic and never the same sound twice, Slidi
EXTT0=n' on the Frets is an interesting listen as well as an historical docu
EXTT0=ment.  Zac Johnson
EXTT1=
EXTT2=
EXTT3=
EXTT4=
EXTT5=
EXTT6=
EXTT7=
EXTT8=
EXTT9=
EXTT10=
EXTT11=
EXTT12=
EXTT13=
EXTT14=
EXTT15=
EXTT16=
EXTT17=
EXTT18=
EXTT19=
EXTT20=
EXTT21=
EXTT22=
PLAYORDER=
